<?xml version="1.0" standalone="no"?><!DOCTYPE svg PUBLIC "-//W3C//DTD SVG 1.1//EN" "http://www.w3.org/Graphics/SVG/1.1/DTD/svg11.dtd"><svg t="1760258290295" class="icon" viewBox="0 0 1078 1024" version="1.1" xmlns="http://www.w3.org/2000/svg" p-id="9724" xmlns:xlink="http://www.w3.org/1999/xlink" width="210.546875" height="200"><path d="M659.597609 683.45412m-332.726801 0a332.7268 332.7268 0 1 0 665.453601 0 332.7268 332.7268 0 1 0-665.453601 0Z" fill="#d011bf" p-id="9725" data-spm-anchor-id="a313x.search_index.0.i20.69173a81oAMEFH" class="selected"></path><path d="M1068.552119 631.515467l-98.81986-98.81986a34.503769 34.503769 0 0 0-49.310112 0l-73.798804 73.798804-216.571874 216.27242a38.429945 38.429945 0 0 0-8.950351 14.839616l-38.596309 131.327268-2.495451 8.750714a35.734858 35.734858 0 0 0 34.304133 44.851573 39.927216 39.927216 0 0 0 9.981804-1.430725l139.911619-41.291396a30.743956 30.743956 0 0 0 14.839616-8.950351l1.963088-1.963088 28.947231-28.780868 23.756694-24.854692 12.876527-12.876527 53.602288-53.602288 143.072524-143.072524 24.655056-24.854692a34.670133 34.670133 0 0 0 0.698726-49.676111z m-315.059007 315.059007l-76.527165 22.525604-62.552638 17.867429 5.556538-17.867429 35.734858-121.511827 30.211593-30.743957 98.653497 98.653496z m146.699246-146.399792l-90.934235 90.867689-98.986223-98.986223 185.495191-185.495191 4.458539 4.990902 94.361321 94.527684z m119.016376-119.18274l-98.81986-98.986223 24.655056-23.95633 98.121134 98.121133zM254.303093 144.403431l64.68209 129.197817 64.68209-129.197817h60.922277l-82.216792 149.22797h54.866649v28.414869h-71.469716v35.734858h71.469716v28.581232h-71.469716v64.316091h-53.569015v-64.316091H220.730959v-28.248505h71.469717V322.378997H221.263322v-28.780869h54.633741L193.513907 144.370159z" fill="#656565" p-id="9726"></path><path d="M180.337926 583.469717h429.017936a23.690148 23.690148 0 0 1 26.81778 26.81778 23.690148 23.690148 0 0 1-26.81778 26.81778H180.471016a23.690148 23.690148 0 0 1-26.81778-26.81778 23.690148 23.690148 0 0 1 26.68469-26.81778z" fill="#656565" p-id="9727"></path><path d="M180.337926 744.309852h196.574993a23.690148 23.690148 0 0 1 26.81778 26.81778 23.690148 23.690148 0 0 1-26.81778 26.81778H180.337926a23.690148 23.690148 0 0 1-26.81778-26.81778 23.690148 23.690148 0 0 1 26.81778-26.81778z" fill="#656565" p-id="9728"></path><path d="M864.59059 195.510268a17.867429 17.867429 0 0 0-25.387055 0l-126.436184 126.436184-63.218092-63.218092a17.867429 17.867429 0 0 0-25.387055 25.187419l75.961529 75.961528a17.867429 17.867429 0 0 0 7.153626 4.125812 18.932155 18.932155 0 0 0 12.144528 0 21.22797 21.22797 0 0 0 5.889265-3.926176l139.013257-139.013257a17.867429 17.867429 0 0 0 0-25.553418z" fill="#656565" p-id="9729"></path><path d="M1012.354562 83.115155v366.332207a26.81778 26.81778 0 0 1-53.602288 0V83.115155a17.867429 17.867429 0 0 0-17.867429-17.867429H83.115155a17.867429 17.867429 0 0 0-17.867429 17.867429v857.76969a17.867429 17.867429 0 0 0 17.867429 17.867429h366.332207a26.81778 26.81778 0 0 1 0 53.602288H83.115155A71.469717 71.469717 0 0 1 11.645438 940.884845V83.115155A71.469717 71.469717 0 0 1 83.115155 11.645438h857.76969a71.469717 71.469717 0 0 1 71.469717 71.469717z" fill="#656565" p-id="9730"></path></svg>